<?xml version="1.0" encoding="UTF-8" standalone="no"?>
<svg
   xmlns:dc="http://purl.org/dc/elements/1.1/"
   xmlns:cc="http://creativecommons.org/ns#"
   xmlns:rdf="http://www.w3.org/1999/02/22-rdf-syntax-ns#"
   xmlns:svg="http://www.w3.org/2000/svg"
   xmlns="http://www.w3.org/2000/svg"
   xmlns:sodipodi="http://sodipodi.sourceforge.net/DTD/sodipodi-0.dtd"
   xmlns:inkscape="http://www.inkscape.org/namespaces/inkscape"
   sodipodi:docname="login_user_key.svg"
   inkscape:version="1.0 (4035a4fb49, 2020-05-01)"
   id="svg8"
   version="1.1"
   viewBox="0 0 135.46666 135.46666"
   height="512"
   width="512">
  <defs
     id="defs2" />
  <sodipodi:namedview
     inkscape:window-maximized="1"
     inkscape:window-y="-8"
     inkscape:window-x="-8"
     inkscape:window-height="1017"
     inkscape:window-width="1920"
     units="px"
     showgrid="false"
     inkscape:document-rotation="0"
     inkscape:current-layer="layer1"
     inkscape:document-units="mm"
     inkscape:cy="427.00919"
     inkscape:cx="61.501523"
     inkscape:zoom="0.7"
     inkscape:pageshadow="2"
     inkscape:pageopacity="0.0"
     borderopacity="1.0"
     bordercolor="#666666"
     pagecolor="#ffffff"
     id="base" />
  <metadata
     id="metadata5">
    <rdf:RDF>
      <cc:Work
         rdf:about="">
        <dc:format>image/svg+xml</dc:format>
        <dc:type
           rdf:resource="http://purl.org/dc/dcmitype/StillImage" />
        <dc:title></dc:title>
      </cc:Work>
    </rdf:RDF>
  </metadata>
  <g
     id="layer1"
     inkscape:groupmode="layer"
     inkscape:label="Sloj 1">
    <g
       transform="matrix(1.0402678,0,0,1.0685495,-44.040403,-53.920198)"
       id="g871">
      <path
         style="fill:#282828;fill-opacity:0.9;stroke:none;stroke-width:1;stroke-linecap:round;stroke-linejoin:round;stroke-miterlimit:4;stroke-dasharray:none;stroke-opacity:1"
         d="m 92.952572,123.2823 c -2.512533,-0.45456 -5.357148,-1.57996 -7.203067,-2.84973 -3.933753,-2.70595 -7.14289,-7.04516 -8.727836,-11.80128 -0.342496,-1.02777 -0.700972,-1.67639 -1.253385,-2.26786 -1.614048,-1.72817 -3.629932,-5.0618 -4.443716,-7.348488 -0.518131,-1.455914 -1.04693,-4.379785 -1.048787,-5.799029 -0.0034,-2.611577 0.700775,-4.835858 1.806334,-5.70549 l 0.4582,-0.360421 0.177535,-5.643052 c 0.184293,-5.857893 0.209569,-6.043917 1.227529,-9.034904 1.308037,-3.843285 4.031372,-7.322569 7.436607,-9.500873 4.194852,-2.683414 10.182127,-4.003175 15.811426,-3.485274 4.251098,0.391107 8.669958,1.779477 11.445168,3.595987 2.23603,1.463582 3.86096,3.837736 4.35051,6.356418 0.17326,0.891466 0.37479,1.295572 0.94249,1.889882 1.40997,1.476081 2.50004,4.068924 3.05895,7.276042 0.14471,0.830365 0.24701,2.898256 0.24701,4.992885 v 3.575474 l 0.68041,0.676759 c 0.9188,0.913876 1.31369,2.165374 1.43874,4.559676 0.24349,4.662431 -1.53971,9.356088 -5.20803,13.708328 -0.62038,0.73605 -1.21578,1.62902 -1.32309,1.98438 -1.11691,3.69841 -3.07303,6.98586 -5.79339,9.73639 -3.44663,3.48486 -7.382009,5.32076 -11.717257,5.46623 -1.039434,0.0349 -2.102493,0.025 -2.362351,-0.0221 z"
         id="path857" />
      <path
         style="fill:#282828;fill-opacity:0.9;stroke:none;stroke-width:1;stroke-linecap:round;stroke-linejoin:round;stroke-miterlimit:4;stroke-dasharray:none;stroke-opacity:1"
         d="m 86.337989,161.27971 c -8.322164,-0.29885 -14.35907,-0.76679 -20.505208,-1.58949 -5.626164,-0.75305 -7.942252,-1.19287 -13.512649,-2.56601 -1.247622,-0.30755 -4.885322,-1.47375 -5.575149,-1.78733 -0.207886,-0.0945 -0.796753,-0.35545 -1.308592,-0.57987 -1.538939,-0.67471 -1.645756,-0.89564 -1.548874,-3.20339 0.103783,-2.47205 0.382204,-4.53786 0.891487,-6.61458 2.615033,-10.66335 7.258963,-17.28909 14.817169,-21.14042 1.932361,-0.98464 5.330119,-2.56813 6.798165,-3.16821 0.626636,-0.25615 1.309425,-0.54271 1.517311,-0.63681 0.207889,-0.0941 1.228424,-0.51988 2.267858,-0.94618 1.039434,-0.4263 2.485194,-1.02323 3.212798,-1.32652 2.068949,-0.86239 3.8901,-1.50876 4.227486,-1.50044 0.169526,0.004 0.690928,0.52332 1.158674,1.15364 1.827757,2.46305 5.662795,5.56652 8.314558,6.7285 1.659572,0.7272 1.747747,0.76163 2.741244,1.07037 1.307558,0.40633 3.309086,0.67036 5.10268,0.67311 6.003613,0.009 11.771063,-3.07446 16.130723,-8.62454 0.42153,-0.53663 0.8341,-1.01676 0.91681,-1.06697 0.13978,-0.0849 2.21429,0.66581 3.58073,1.29568 0.32754,0.15098 0.68396,0.27451 0.79205,0.27451 0.5173,0 0.32175,0.48511 -0.77698,1.92743 -1.18064,1.54985 -1.7306,2.34389 -2.13378,3.08076 -3.01423,5.50896 -3.9663,8.84525 -4.36844,15.30803 -0.18762,3.01519 0.57855,7.74333 1.8681,11.52827 1.06988,3.14023 3.46932,7.48345 5.56198,10.06774 0.27539,0.34007 0.46477,0.65423 0.42085,0.69816 -0.3362,0.3362 -7.67947,0.77737 -15.75544,0.94654 -2.80647,0.0588 -5.783033,0.13661 -6.614579,0.17291 -0.831548,0.0363 -4.530989,-0.0424 -8.220982,-0.17489 z"
         id="path859" />
      <path
         style="fill:#282828;fill-opacity:0.9;stroke:none;stroke-width:1;stroke-linecap:round;stroke-linejoin:round;stroke-miterlimit:4;stroke-dasharray:none;stroke-opacity:1"
         d="m 138.68769,168.18928 c -3.66369,-0.47073 -6.5964,-1.32737 -9.73289,-2.8429 -8.27421,-3.99809 -14.05683,-11.4395 -16.00512,-20.59633 -0.61294,-2.88078 -0.61294,-8.64747 0,-11.52826 2.53073,-11.89425 11.55049,-20.76203 23.47015,-23.07468 3.05054,-0.59187 7.70278,-0.58516 10.67783,0.0154 6.86924,1.38665 12.79618,4.87466 17.18536,10.11359 0.91005,1.08624 2.18592,2.87032 2.18592,3.05661 0,0.0695 0.11928,0.26069 0.26507,0.42479 0.28596,0.32188 1.36978,2.41647 1.96348,3.79464 2.11956,4.92015 2.88218,11.35167 1.93116,16.28634 -1.30668,6.78008 -3.87241,11.60502 -8.62939,16.22782 -3.4279,3.33121 -7.53266,5.7539 -11.87021,7.00596 -3.56597,1.02936 -8.42876,1.5041 -11.44136,1.11702 z m 16.01952,-19.54999 0.70593,-0.64651 0.0594,-3.32224 0.0594,-3.32226 h 1.69809 c 1.85727,0 2.512,-0.21886 3.17454,-1.06115 0.27777,-0.35312 0.39467,-0.7749 0.39467,-1.42396 0,-0.78649 -0.0952,-1.02613 -0.6468,-1.62816 l -0.6468,-0.70593 -8.34218,-0.053 -8.34218,-0.053 -0.27594,-0.70296 c -0.95382,-2.42988 -2.63514,-4.52254 -4.52199,-5.6283 -4.17132,-2.44456 -9.40095,-1.66235 -12.71298,1.90153 -1.22913,1.32258 -2.24341,3.35659 -2.52885,5.0713 -0.24183,1.45271 -0.0666,4.04169 0.3375,4.98742 0.78131,1.82841 1.3864,2.79739 2.44043,3.90798 3.84987,4.05651 10.66288,4.07233 14.50476,0.0337 0.99135,-1.04214 1.90119,-2.47703 2.31652,-3.65332 l 0.35032,-0.99218 h 3.93141 3.93142 v 3.03318 c 0,3.2879 0.11176,3.76288 1.06115,4.50966 0.35311,0.27776 0.7749,0.39466 1.42396,0.39466 0.78634,0 1.02624,-0.0952 1.62816,-0.64649 z"
         id="path861" />
      <circle
         style="fill:#282828;fill-opacity:0.9;stroke:none;stroke-width:1.18716;stroke-linecap:round;stroke-linejoin:round;stroke-miterlimit:4;stroke-dasharray:none;stroke-opacity:1"
         id="path865"
         cx="132.77959"
         cy="138.85081"
         r="5.9449401" />
    </g>
  </g>
</svg>
