<?xml version="1.0" encoding="UTF-8" standalone="no"?>
<svg
   xmlns:dc="http://purl.org/dc/elements/1.1/"
   xmlns:cc="http://creativecommons.org/ns#"
   xmlns:rdf="http://www.w3.org/1999/02/22-rdf-syntax-ns#"
   xmlns:svg="http://www.w3.org/2000/svg"
   xmlns="http://www.w3.org/2000/svg"
   xmlns:sodipodi="http://sodipodi.sourceforge.net/DTD/sodipodi-0.dtd"
   xmlns:inkscape="http://www.inkscape.org/namespaces/inkscape"
   width="3600"
   height="1024"
   viewBox="0 0 952.49998 270.93334"
   version="1.1"
   id="svg8"
   inkscape:version="1.0.1 (3bc2e813f5, 2020-09-07)"
   sodipodi:docname="reforged_banner.svg"
   inkscape:export-filename="C:\Users\crazie\Graphics\Logo\Reforged\reforged_banner.png"
   inkscape:export-xdpi="199.09334"
   inkscape:export-ydpi="199.09334">
  <defs
     id="defs2">
    <clipPath
       id="clipPath938"
       clipPathUnits="userSpaceOnUse">
      <path
         inkscape:connector-curvature="0"
         id="path940"
         d="m 90.403918,188.48857 1.00226,-1.46998 6.214015,-0.0668 c 0,0 1.870885,-4.74403 -0.53454,-5.01131 -2.405425,-0.26726 -15.167544,-0.66817 -15.167544,-0.66817 l -1.603616,11.82668 4.610399,10.7576 12.160761,-0.20045 1.069078,-9.75534 -1.670431,-0.80181 -6.013564,-0.0668 z"
         style="fill:#1a1a1a;fill-opacity:1;stroke:#000000;stroke-width:0.26458332px;stroke-linecap:butt;stroke-linejoin:miter;stroke-opacity:1" />
    </clipPath>
    <clipPath
       id="clipPath956"
       clipPathUnits="userSpaceOnUse">
      <rect
         y="159.79463"
         x="104.60491"
         height="22.111607"
         width="4.1577382"
         id="rect958"
         style="opacity:1;fill:#1a1a1a;fill-opacity:1;stroke:#000000;stroke-width:1;stroke-linecap:butt;stroke-linejoin:bevel;stroke-miterlimit:4;stroke-dasharray:none;stroke-opacity:1" />
    </clipPath>
    <clipPath
       clipPathUnits="userSpaceOnUse"
       id="clipPath938-6">
      <path
         style="fill:#1a1a1a;fill-opacity:1;stroke:#000000;stroke-width:0.26458332px;stroke-linecap:butt;stroke-linejoin:miter;stroke-opacity:1"
         d="m 90.403918,188.48857 1.00226,-1.46998 6.214015,-0.0668 c 0,0 1.870885,-4.74403 -0.53454,-5.01131 -2.405425,-0.26726 -15.167544,-0.66817 -15.167544,-0.66817 l -1.603616,11.82668 4.610399,10.7576 12.160761,-0.20045 1.069078,-9.75534 -1.670431,-0.80181 -6.013564,-0.0668 z"
         id="path940-1"
         inkscape:connector-curvature="0" />
    </clipPath>
    <clipPath
       clipPathUnits="userSpaceOnUse"
       id="clipPath956-2">
      <rect
         style="opacity:1;fill:#1a1a1a;fill-opacity:1;stroke:#000000;stroke-width:1;stroke-linecap:butt;stroke-linejoin:bevel;stroke-miterlimit:4;stroke-dasharray:none;stroke-opacity:1"
         id="rect958-2"
         width="4.1577382"
         height="22.111607"
         x="104.60491"
         y="159.79463" />
    </clipPath>
  </defs>
  <sodipodi:namedview
     id="base"
     pagecolor="#ffffff"
     bordercolor="#666666"
     borderopacity="1.0"
     inkscape:pageopacity="0.0"
     inkscape:pageshadow="2"
     inkscape:zoom="0.35"
     inkscape:cx="1801.1508"
     inkscape:cy="51.952326"
     inkscape:document-units="mm"
     inkscape:current-layer="layer1"
     showgrid="false"
     inkscape:window-width="1920"
     inkscape:window-height="1017"
     inkscape:window-x="-8"
     inkscape:window-y="-8"
     inkscape:window-maximized="1"
     units="px"
     inkscape:document-rotation="0" />
  <metadata
     id="metadata5">
    <rdf:RDF>
      <cc:Work
         rdf:about="">
        <dc:format>image/svg+xml</dc:format>
        <dc:type
           rdf:resource="http://purl.org/dc/dcmitype/StillImage" />
        <dc:title></dc:title>
      </cc:Work>
    </rdf:RDF>
  </metadata>
  <g
     inkscape:label="Layer 1"
     inkscape:groupmode="layer"
     id="layer1"
     transform="translate(0,-26.06665)">
    <g
       id="g860"
       transform="matrix(1.2374779,0,0,1.9431226,-113.37721,-151.92813)">
      <path
         style="fill:none;fill-opacity:0.054902;stroke:#daa520;stroke-width:8.48265;stroke-linecap:butt;stroke-linejoin:miter;stroke-miterlimit:4;stroke-dasharray:none;stroke-opacity:1"
         d="m 114.18497,160.58534 -13.72914,11.49153 53.90711,47.55727 -3e-5,-24.39741 -52.89761,-45.96611 53.09955,-45.96612 v 19.27041 l -29.67921,25.45815 28.87161,25.45816 -6e-5,-26.8725 -6.25885,6.54134"
         id="path1168"
         inkscape:connector-curvature="0"
         sodipodi:nodetypes="ccccccccccc"
         inkscape:export-xdpi="6.6399999"
         inkscape:export-ydpi="6.6399999" />
      <path
         sodipodi:nodetypes="ccccccccccc"
         inkscape:connector-curvature="0"
         id="path1170"
         d="m 209.25238,162.48129 13.72914,-11.49154 -53.9071,-47.55725 3e-5,24.3974 52.8976,45.96612 -53.09953,45.96613 v -19.27043 l 29.6792,-25.45815 -28.8716,-25.45816 6e-5,26.8725 6.25885,-6.54135"
         style="fill:none;fill-opacity:0.054902;stroke:#daa520;stroke-width:8.48265;stroke-linecap:butt;stroke-linejoin:miter;stroke-miterlimit:4;stroke-dasharray:none;stroke-opacity:1"
         inkscape:export-xdpi="6.6399999"
         inkscape:export-ydpi="6.6399999" />
      <path
         d="m 291.44075,167.24577 v 20.53762 q 0,1.36009 0.63472,2.13084 0.68006,0.72539 2.26684,1.13342 v 1.45078 h -19.31352 v -1.45078 q 1.63214,-0.45339 2.26684,-1.17878 0.63473,-0.72539 0.63473,-2.08548 v -52.40947 q 0,-1.40544 -0.63473,-2.13084 -0.6347,-0.72539 -2.26684,-1.17875 v -1.45078 h 38.71772 q 7.07255,0 11.19822,0.81606 4.17099,0.81608 7.25391,2.85623 3.58161,2.35753 5.34976,6.39251 1.67745,3.89898 1.67745,8.34199 0,15.14253 -16.81998,17.72673 l 12.01427,17.09201 q 3.17359,4.48834 4.62437,5.80312 1.49612,1.26942 3.62695,1.40545 v 1.45078 h -22.39643 v -1.45078 q 2.31217,-0.3627 2.31217,-1.63214 0,-0.81606 -2.13084,-3.94431 l -12.51297,-18.22543 z m 0,-10.2008 h 20.85498 q 4.62437,0 6.52852,-0.27203 1.90414,-0.27203 3.49095,-1.13342 3.44559,-1.85881 3.44559,-6.70985 0,-4.85106 -3.44559,-6.70987 -1.63214,-0.90673 -3.49095,-1.13342 -1.81348,-0.27203 -6.52852,-0.27203 h -20.85498 z"
         style="font-style:normal;font-variant:normal;font-weight:normal;font-stretch:normal;font-size:40px;line-height:1.25;font-family:'Copperplate Gothic Bold';-inkscape-font-specification:'Copperplate Gothic Bold, ';letter-spacing:0px;word-spacing:0px;fill:#daa520;fill-opacity:1;stroke:none;stroke-width:2.32125"
         id="path858"
         inkscape:connector-curvature="0"
         inkscape:export-xdpi="6.6399999"
         inkscape:export-ydpi="6.6399999" />
      <path
         d="m 366.51866,165.34162 v 16.95601 h 39.8058 q 1.36012,0 2.08551,-0.63472 0.72539,-0.63472 1.17875,-2.26684 h 1.45078 v 16.00392 h -1.45078 q -0.45336,-1.63214 -1.17875,-2.26686 -0.72539,-0.6347 -2.08551,-0.6347 H 350.1067 v -1.45078 q 1.63214,-0.45339 2.26684,-1.17878 0.63473,-0.72539 0.63473,-2.13081 v -52.36414 q 0,-1.40544 -0.63473,-2.13084 -0.6347,-0.72539 -2.26684,-1.17875 v -1.45078 h 55.12968 q 1.36011,0 2.0855,-0.63472 0.72539,-0.68006 1.17875,-2.31218 h 1.45079 v 16.00393 h -1.45079 q -0.45336,-1.58678 -1.17875,-2.22151 -0.72539,-0.63472 -2.0855,-0.63472 h -38.71772 v 14.68917 h 25.11666 q 1.36009,0 2.08548,-0.63472 0.72539,-0.63473 1.17878,-2.26684 h 1.45078 v 15.64123 h -1.45078 q -0.45339,-1.58681 -1.17878,-2.22151 -0.72539,-0.68006 -2.08548,-0.68006 z"
         style="font-style:normal;font-variant:normal;font-weight:normal;font-stretch:normal;font-size:40px;line-height:1.25;font-family:'Copperplate Gothic Bold';-inkscape-font-specification:'Copperplate Gothic Bold, ';letter-spacing:0px;word-spacing:0px;fill:#daa520;fill-opacity:1;stroke:none;stroke-width:2.32125"
         id="path860"
         inkscape:connector-curvature="0"
         inkscape:export-xdpi="6.6399999"
         inkscape:export-ydpi="6.6399999" />
      <path
         d="m 437.06289,165.43229 v 22.30577 q 0,1.40542 0.63472,2.17617 0.68006,0.72539 2.26684,1.13342 v 1.45078 h -19.31351 v -1.45078 q 1.63211,-0.45339 2.26684,-1.17878 0.63472,-0.72539 0.63472,-2.13081 v -52.36414 q 0,-1.40544 -0.63472,-2.13084 -0.63473,-0.72539 -2.26684,-1.17875 v -1.45078 h 54.76697 q 1.36009,0 2.08548,-0.63472 0.72539,-0.6347 1.17878,-2.31218 h 1.45078 v 16.00393 h -1.45078 q -0.45339,-1.63212 -1.17878,-2.22151 -0.72539,-0.63472 -2.08548,-0.63472 h -38.35502 v 14.77984 h 25.0713 q 1.40545,0 2.13084,-0.63473 0.72539,-0.68005 1.17875,-2.31217 h 1.45078 v 15.64123 h -1.45078 q -0.45336,-1.58678 -1.17875,-2.22151 -0.72539,-0.63472 -2.13084,-0.63472 z"
         style="font-style:normal;font-variant:normal;font-weight:normal;font-stretch:normal;font-size:40px;line-height:1.25;font-family:'Copperplate Gothic Bold';-inkscape-font-specification:'Copperplate Gothic Bold, ';letter-spacing:0px;word-spacing:0px;fill:#daa520;fill-opacity:1;stroke:none;stroke-width:2.32125"
         id="path862"
         inkscape:connector-curvature="0"
         inkscape:export-xdpi="6.6399999"
         inkscape:export-ydpi="6.6399999" />
      <path
         d="m 520.77747,129.52546 q 16.18528,0 25.66069,8.75002 10.01947,9.15805 10.01947,23.66586 0,8.88605 -4.80573,16.59331 -9.38474,15.05187 -30.78376,15.05187 -16.04926,0 -25.52467,-8.75002 -5.07773,-4.66971 -7.70727,-11.19822 -2.31219,-5.75779 -2.31219,-12.10497 0,-9.29405 4.76039,-17.00134 9.11272,-14.73448 30.69307,-15.00651 z m 0.0453,10.47283 q -8.84069,0 -14.73448,5.25907 -6.9819,6.21118 -6.9819,16.27595 0,10.0648 6.9819,16.27595 5.89379,5.25909 14.82517,5.25909 8.93135,0 14.77981,-5.25909 3.49095,-3.12823 5.34976,-7.66193 1.63214,-4.03498 1.63214,-8.34199 0,-10.51816 -6.9819,-16.54798 -5.93913,-5.1684 -14.8705,-5.25907 z"
         style="font-style:normal;font-variant:normal;font-weight:normal;font-stretch:normal;font-size:40px;line-height:1.25;font-family:'Copperplate Gothic Bold';-inkscape-font-specification:'Copperplate Gothic Bold, ';letter-spacing:0px;word-spacing:0px;fill:#daa520;fill-opacity:1;stroke:none;stroke-width:2.32125"
         id="path864"
         inkscape:connector-curvature="0"
         inkscape:export-xdpi="6.6399999"
         inkscape:export-ydpi="6.6399999" />
      <path
         d="m 582.68501,167.24577 v 20.53762 q 0,1.36009 0.63472,2.13084 0.68006,0.72539 2.26684,1.13342 v 1.45078 h -19.31352 v -1.45078 q 1.63214,-0.45339 2.26684,-1.17878 0.63473,-0.72539 0.63473,-2.08548 v -52.40947 q 0,-1.40544 -0.63473,-2.13084 -0.6347,-0.72539 -2.26684,-1.17875 v -1.45078 h 38.71772 q 7.07255,0 11.19822,0.81606 4.17099,0.81608 7.25391,2.85623 3.58162,2.35753 5.34976,6.39251 1.67745,3.89898 1.67745,8.34199 0,15.14253 -16.81998,17.72673 l 12.01427,17.09201 q 3.17359,4.48834 4.62437,5.80312 1.49612,1.26942 3.62695,1.40545 v 1.45078 h -22.39643 v -1.45078 q 2.31217,-0.3627 2.31217,-1.63214 0,-0.81606 -2.13084,-3.94431 l -12.51297,-18.22543 z m 0,-10.2008 h 20.85498 q 4.62437,0 6.52852,-0.27203 1.90414,-0.27203 3.49095,-1.13342 3.44559,-1.85881 3.44559,-6.70985 0,-4.85106 -3.44559,-6.70987 -1.63214,-0.90673 -3.49095,-1.13342 -1.81348,-0.27203 -6.52852,-0.27203 h -20.85498 z"
         style="font-style:normal;font-variant:normal;font-weight:normal;font-stretch:normal;font-size:40px;line-height:1.25;font-family:'Copperplate Gothic Bold';-inkscape-font-specification:'Copperplate Gothic Bold, ';letter-spacing:0px;word-spacing:0px;fill:#daa520;fill-opacity:1;stroke:none;stroke-width:2.32125"
         id="path866"
         inkscape:connector-curvature="0"
         inkscape:export-xdpi="6.6399999"
         inkscape:export-ydpi="6.6399999" />
      <path
         d="m 695.25655,170.238 h -15.27853 q -1.40545,0 -2.13084,0.63472 -0.68006,0.63472 -1.13342,2.26684 h -1.45078 v -14.41712 h 1.45078 q 0.45336,1.67745 1.13342,2.31217 0.72539,0.58939 2.13084,0.58939 h 29.37831 v 1.45078 q -1.63214,0.45337 -2.3122,1.17876 -0.6347,0.72539 -0.6347,2.13083 v 12.69434 q 0,1.40544 0.6347,2.13083 0.63473,0.7254 2.3122,1.17876 v 1.13342 q -17.63606,10.0648 -34.18404,10.0648 -15.00651,0 -24.48192,-7.11791 -11.92361,-8.97671 -11.92361,-24.9353 0,-14.8705 10.60883,-23.66586 10.0648,-8.34199 26.74878,-8.34199 5.30443,0 9.97413,0.99742 4.71504,0.95206 10.6995,3.26426 3.08292,1.22409 4.39768,1.22409 0.95208,0 2.2215,-1.04275 l 1.26945,0.68005 -7.25391,14.82517 -1.31478,-0.68005 q -0.0453,-1.49612 -0.40803,-2.13084 -0.36269,-0.68006 -1.63211,-1.63212 -2.76556,-2.0855 -8.11532,-3.53628 -5.34976,-1.49612 -10.11014,-1.49612 -9.70208,0 -16.09459,5.44043 -7.20857,6.16582 -7.20857,16.27595 0,9.79277 7.02721,15.82257 6.43785,5.53111 16.95601,5.53111 5.12307,0 10.11013,-1.17877 4.98707,-1.17876 8.61402,-3.2189 z"
         style="font-style:normal;font-variant:normal;font-weight:normal;font-stretch:normal;font-size:40px;line-height:1.25;font-family:'Copperplate Gothic Bold';-inkscape-font-specification:'Copperplate Gothic Bold, ';letter-spacing:0px;word-spacing:0px;fill:#daa520;fill-opacity:1;stroke:none;stroke-width:2.32125"
         id="path868"
         inkscape:connector-curvature="0"
         inkscape:export-xdpi="6.6399999"
         inkscape:export-ydpi="6.6399999" />
      <path
         d="m 736.28644,165.34162 v 16.95601 h 39.80581 q 1.36009,0 2.08548,-0.63472 0.72539,-0.63472 1.17878,-2.26684 h 1.45078 v 16.00392 h -1.45078 q -0.45339,-1.63214 -1.17878,-2.26686 -0.72539,-0.6347 -2.08548,-0.6347 h -56.21776 v -1.45078 q 1.63212,-0.45339 2.26684,-1.17878 0.63472,-0.72539 0.63472,-2.13081 v -52.36414 q 0,-1.40544 -0.63472,-2.13084 -0.63472,-0.72539 -2.26684,-1.17875 v -1.45078 h 55.12967 q 1.36009,0 2.08548,-0.63472 0.7254,-0.68006 1.17878,-2.31218 h 1.45078 v 16.00393 h -1.45078 q -0.45338,-1.58678 -1.17878,-2.22151 -0.72539,-0.63472 -2.08548,-0.63472 h -38.71772 v 14.68917 h 25.11664 q 1.36012,0 2.08551,-0.63472 0.72539,-0.63473 1.17875,-2.26684 h 1.45078 v 15.64123 h -1.45078 q -0.45336,-1.58681 -1.17875,-2.22151 -0.72539,-0.68006 -2.08551,-0.68006 z"
         style="font-style:normal;font-variant:normal;font-weight:normal;font-stretch:normal;font-size:40px;line-height:1.25;font-family:'Copperplate Gothic Bold';-inkscape-font-specification:'Copperplate Gothic Bold, ';letter-spacing:0px;word-spacing:0px;fill:#daa520;fill-opacity:1;stroke:none;stroke-width:2.32125"
         id="path870"
         inkscape:connector-curvature="0"
         inkscape:export-xdpi="6.6399999"
         inkscape:export-ydpi="6.6399999" />
      <path
         d="m 793.32026,187.73806 v -52.36414 q 0,-1.40544 -0.63472,-2.13084 -0.6347,-0.72539 -2.26684,-1.17875 v -1.45078 h 34.50138 q 11.33424,0 17.40937,2.5842 8.70469,3.76298 12.87569,12.42231 3.30959,6.80054 3.30959,15.91325 0,16.00393 -9.8381,24.39127 -4.12567,3.53626 -9.65677,5.07774 -5.5311,1.49611 -14.09978,1.49611 H 790.4187 v -1.45078 q 1.63214,-0.45339 2.26684,-1.17878 0.63472,-0.72539 0.63472,-2.13081 z m 13.51039,-5.44043 h 16.95601 q 8.11532,0 12.19564,-2.22153 8.75001,-4.76037 8.75001,-18.54279 0,-9.97411 -4.71503,-15.27853 -2.62954,-2.9469 -6.34718,-4.17098 -3.71762,-1.26945 -9.88344,-1.26945 h -16.95601 z"
         style="font-style:normal;font-variant:normal;font-weight:normal;font-stretch:normal;font-size:40px;line-height:1.25;font-family:'Copperplate Gothic Bold';-inkscape-font-specification:'Copperplate Gothic Bold, ';letter-spacing:0px;word-spacing:0px;fill:#daa520;fill-opacity:1;stroke:none;stroke-width:2.32125"
         id="path872"
         inkscape:connector-curvature="0"
         inkscape:export-xdpi="6.6399999"
         inkscape:export-ydpi="6.6399999" />
      <path
         style="fill:#daa520;fill-opacity:1;stroke:none;stroke-width:1.09278;stroke-linecap:butt;stroke-linejoin:bevel;stroke-miterlimit:4;stroke-dasharray:none;stroke-opacity:1"
         d="m 511.54431,161.22488 9.5384,-9.51161 9.51161,9.5384 -9.5384,9.51161 z"
         id="rect834"
         inkscape:connector-curvature="0"
         inkscape:export-xdpi="6.6399999"
         inkscape:export-ydpi="6.6399999" />
    </g>
  </g>
</svg>
